<?xml version="1.0" encoding="UTF-8" standalone="no"?>
<svg width="16px" height="16px" viewBox="0 0 16 16" version="1.1" xmlns="http://www.w3.org/2000/svg" xmlns:xlink="http://www.w3.org/1999/xlink" xmlns:sketch="http://www.bohemiancoding.com/sketch/ns">
    <!-- Generator: Sketch 3.2 (9961) - http://www.bohemiancoding.com/sketch -->
    <title>Artboard 3</title>
    <desc>Created with Sketch.</desc>
    <defs></defs>
    <g id="Page-1" stroke="none" stroke-width="1" fill="none" fill-rule="evenodd" sketch:type="MSPage">
        <g id="Artboard-3" sketch:type="MSArtboardGroup" fill="#202020">
            <path fill="#39464E" d="M15.8569336,14.8085938 L11.9511719,10.902832 C12.7768555,9.84521484 13.2407227,8.54638672 13.2407227,7.17333984 C13.2407227,5.54980469 12.6098633,4.02832031 11.4594727,2.88720703 C10.3183594,1.74609375 8.796875,1.11523438 7.17333984,1.11523438 C5.55908203,1.11523438 4.03759766,1.74609375 2.88720703,2.88720703 C1.74609375,4.02832031 1.11523438,5.54980469 1.11523438,7.17333984 C1.11523438,8.796875 1.74609375,10.3183594 2.88720703,11.4594727 C4.03759766,12.6005859 5.55908203,13.2314453 7.17333984,13.2314453 C8.54638672,13.2314453 9.84521484,12.7768555 10.902832,11.9511719 L14.8085938,15.8569336 L15.8569336,14.8085938 Z M3.92626953,10.4111328 C3.06347656,9.54833984 2.59033203,8.39794922 2.59033203,7.17333984 C2.59033203,5.94873047 3.06347656,4.79833984 3.93554688,3.92626953 C4.79833984,3.06347656 5.94873047,2.59033203 7.17333984,2.59033203 C8.39794922,2.59033203 9.54833984,3.06347656 10.4204102,3.92626953 C11.2832031,4.79833984 11.7563477,5.94873047 11.7563477,7.17333984 C11.7563477,8.39794922 11.2832031,9.54833984 10.4204102,10.4111328 C9.54833984,11.2832031 8.39794922,11.7563477 7.17333984,11.7563477 C5.94873047,11.7563477 4.79833984,11.2832031 3.92626953,10.4111328 L3.92626953,10.4111328 Z" id="🔎" sketch:type="MSShapeGroup"></path>
        </g>
    </g>
</svg>
